<?xml version="1.0" standalone="no"?>
<!DOCTYPE svg PUBLIC "-//W3C//DTD SVG 1.1//EN" "http://www.w3.org/Graphics/SVG/1.1/DTD/svg11.dtd" >
<svg xmlns="http://www.w3.org/2000/svg">
<metadata>
This is a custom SVG webfont generated by Font Squirrel.
Copyright   : 2007 Vic Fieger
</metadata>
<defs>
<font id="webfontYaPt3X1K" horiz-adv-x="1138" >
<font-face units-per-em="2048" ascent="1638" descent="-410" />
<missing-glyph horiz-adv-x="567" />
<glyph unicode=" "  horiz-adv-x="567" />
<glyph unicode="&#x09;" horiz-adv-x="567" />
<glyph unicode="&#xa0;" horiz-adv-x="567" />
<glyph unicode="!" horiz-adv-x="600" d="M211 25q-33 90 59 118.5t121 -67.5q27 -94 -59 -118.5t-121 67.5zM242 289q-43 676 0 815q78 102 172 -12q-15 -141 -49 -824q-68 -61 -123 21z" />
<glyph unicode="&#x22;" horiz-adv-x="796" d="M199 1112q39 102 172 43q0 -231 -47 -426l-115 45q-4 229 -10 338zM414 1112q39 102 172 43q2 -219 -47 -426l-113 45q0 129 -12 338z" />
<glyph unicode="#" />
<glyph unicode="$" horiz-adv-x="1304" d="M33 80q9 92 73 104q113 -76 244 -102.5t217 -18.5l2 566q-203 -37 -299 -23q-102 16 -164 78q-63 63 -36 154q29 92 106 147q82 57 189 92q115 39 210 47l-2 84q45 41 127 6l-4 -84q176 -2 420 -69q18 -84 -39 -109q-231 68 -379 56v-238q287 6 412 -70q123 -76 152 -196 q29 -117 -15 -211q-43 -96 -176 -205q-131 -106 -366 -135l2 -133q-84 -80 -136 -27v144q-133 -18 -272 12q-143 31 -266 131zM204.5 839.5q-16.5 -53.5 57.5 -91.5q76 -41 311 8l2 237q-100 -8 -229 -55q-125 -45 -141.5 -98.5zM698 645l2 -567q160 25 279 92 q121 68 160 180q39 111 -70 211t-371 84z" />
<glyph unicode="%" horiz-adv-x="1820" />
<glyph unicode="&#x26;" horiz-adv-x="1363" />
<glyph unicode="'" horiz-adv-x="389" d="M90 774q22 181 31 338q53 102 178 43q-23 -215 -100 -426z" />
<glyph unicode="(" horiz-adv-x="348" d="M334 -342q-586 915 6 1763q70 0 88 -59q-473 -790 -18 -1671q-21 -45 -76 -33z" />
<glyph unicode=")" horiz-adv-x="352" d="M-61 -287q473 791 16 1671q20 45 78 33q584 -911 -8 -1761q-68 0 -86 57z" />
<glyph unicode="*" horiz-adv-x="796" />
<glyph unicode="+" horiz-adv-x="1193" />
<glyph unicode="," horiz-adv-x="499" d="M66 -84q20 178 30 336q55 104 178 45q-25 -217 -100 -428z" />
<glyph unicode="-" horiz-adv-x="792" d="M76 532q-43 74 16 138l608 26q59 -66 -10 -137z" />
<glyph unicode="." horiz-adv-x="503" d="M139 90q-27 80 19 125q47 47 100 37t82 -90t-71.5 -117t-129.5 45z" />
<glyph unicode="/" horiz-adv-x="770" d="M-16 -41l718 1311q80 0 105 -68l-690 -1280q-115 -74 -133 37z" />
<glyph unicode="0" horiz-adv-x="1490" d="M39 455q-23 170 70 319q94 154 192 211q104 59 219 102t346 33q229 -8 353 -92q121 -82 182 -227q59 -141 29 -281q-33 -139 -101 -229q-74 -94 -164 -162q-92 -68 -209 -111q-115 -43 -274 -32q-164 10 -272 41q-115 33 -232 147q-119 115 -139 281zM192.5 426 q34.5 -98 98 -168t158.5 -115q90 -43 278 -41q186 2 338 123q147 117 194.5 256.5t4.5 255.5q-41 113 -179 185q-141 74 -243 79q-117 6 -217 -16q-111 -25 -250 -125q-137 -98 -178 -219q-39 -117 -4.5 -215z" />
<glyph unicode="1" horiz-adv-x="550" d="M150 1071l227 41q53 -18 22 -104l11 -1053q-68 -41 -144 8v998l-98 -13q-76 62 -18 123z" />
<glyph unicode="2" horiz-adv-x="1376" d="M23 12q141 342 368 434q238 96 379 132q150 37 291 135q139 96 39 178q-98 80 -244 96q-139 14 -231 -4q-86 -18 -179 -65q-94 -49 -210 -175q-90 31 -107 88q150 193 360 246q213 53 351 35t252 -61q113 -43 176 -150q61 -102 -21 -203q-78 -96 -276 -174 q-209 -82 -320 -116q-117 -37 -225 -97q-104 -57 -217 -221l1065 27q88 -63 6 -137l-1081 -15q-172 -55 -176 47z" />
<glyph unicode="3" horiz-adv-x="1376" d="M47 98q-25 92 53 135q143 -80 281 -110q129 -29 262 -39q129 -10 277 33q154 43 229 123q76 78 18 172q-55 92 -268 190q-200 -37 -528 -74q-76 51 -19 119q389 35 570 96q193 66 192 136q0 72 -80 110q-82 39 -217 37q-121 -2 -278 -37q-141 -31 -306 -133 q-131 49 -30 133q231 109 354 131q139 27 260 27q123 0 234 -27q98 -25 168 -121q66 -92 22 -180q-45 -88 -207 -151q141 -59 221 -125q82 -68 101 -187q18 -121 -76 -215t-291 -145q-207 -53 -475 -39q-281 16 -467 141z" />
<glyph unicode="4" horiz-adv-x="1210" d="M51 264l805 750q74 -12 92 -94l2 190q82 70 150 -12l-6 -795l75 6q57 -76 -10 -153l-74 -6l-2 -240q-59 -74 -133 -10l-2 256l-864 -41q-72 59 -33 149zM213 238l735 38l2 623z" />
<glyph unicode="5" horiz-adv-x="1318" d="M53 94q-22 92 56 135q274 -127 444 -131q172 -4 309 39q145 45 234 121q92 80 51 191q-43 114 -166 159.5t-276 36.5q-141 -8 -295 -45q-139 -33 -174 -127l-142 33l109 604l946 25q86 -72 -10 -138l-817 -24l-56 -314q213 121 510 107t389 -88q92 -72 119 -203 q29 -135 -24 -227q-55 -96 -179 -168q-131 -76 -413 -107q-287 -31 -615 121z" />
<glyph unicode="6" horiz-adv-x="1441" d="M53 350q-45 137 10 277q53 135 187 252q127 113 321 178q188 63 363 57q170 -6 328 -61q45 -100 -50 -115q-248 68 -424 41q-172 -27 -313 -102q-139 -74 -219 -177q-78 -98 -90 -188q-12 -86 37 -172q303 100 483 129q178 28 338 0q166 -29 254 -70q96 -45 119 -100 q25 -59 -70 -154t-301 -141q-215 -49 -424 -31q-221 18 -360 127q-144 113 -189 250zM279 238q211 -162 405 -162q205 0 336 33q139 35 201 90q63 57 -0.5 100t-194.5 63q-139 23 -250 9q-100 -12 -246 -41q-128 -24 -251 -92z" />
<glyph unicode="7" horiz-adv-x="1208" d="M57 1067l1055 66q106 -18 55 -144l-901 -1218q-102 -33 -114 61l862 1151l-955 -57q-72 86 -2 141z" />
<glyph unicode="8" horiz-adv-x="1536" d="M27 199q-37 129 79 260q115 131 320 215q-133 51 -143.5 141t79.5 164q84 70 218 108q125 37 268 37t235 -26q94 -27 143.5 -80t47.5 -125t-160 -168q221 -29 338 -168q115 -139 21 -299q-96 -160 -275 -231q-178 -70 -336 -93q-162 -23 -319 -16q-166 6 -322 80 q-157 74 -194 201zM164 243.5q14 -116.5 155.5 -161.5t364.5 -37t363 64q135 53 229 131q90 76 82 176q-10 102 -121 159q-119 61 -256 70q-147 10 -334 -29q-188 -39 -346 -149q-151 -107 -137 -223.5zM444 877q-49 -71 43 -111q96 -41 222 -33q143 10 270 47 q137 39 149.5 98.5t-77.5 98.5q-94 41 -222 41q-123 0 -231 -35q-103 -32 -154 -106z" />
<glyph unicode="9" horiz-adv-x="1163" d="M39 918q53 133 241.5 167.5t385.5 24.5q190 -8 413 -72q88 -18 47 -135l-186 -940q-88 -74 -162 21l144 610q-289 -78 -504 -53q-217 25 -323.5 135.5t-55.5 241.5zM186.5 897q-55.5 -92 36.5 -164q90 -70 274.5 -76t448.5 82l37 189q-240 86 -489 73 q-252 -12 -307.5 -104z" />
<glyph unicode=":" horiz-adv-x="503" d="M125 776q0 51 33 78q37 31 78 31q10 0 34 -4q68 -14 80 -101v-16q0 -70 -94 -90q-109 -23 -127 59q-4 14 -4 43zM131 238q0 41 29 69q47 47 100 37t82 -90q6 -18 6 -33q0 -55 -78 -84q-25 -10 -57 -10q-53 0 -72 55q-10 36 -10 56z" />
<glyph unicode=";" horiz-adv-x="503" d="M111 -84q20 178 30 336q55 104 178 45q-25 -217 -100 -428zM131 733q-18 82 27 121q47 41 112 27q68 -14 80 -100.5t-94.5 -107t-124.5 59.5z" />
<glyph unicode="&#x37e;" horiz-adv-x="503" d="M111 -84q20 178 30 336q55 104 178 45q-25 -217 -100 -428zM131 733q-18 82 27 121q47 41 112 27q68 -14 80 -100.5t-94.5 -107t-124.5 59.5z" />
<glyph unicode="&#x3c;" horiz-adv-x="1193" />
<glyph unicode="=" horiz-adv-x="792" d="M76 371q-45 76 16 139l608 27q59 -66 -10 -140zM76 580q-43 74 16 137l608 26q59 -66 -10 -137z" />
<glyph unicode="&#x3e;" horiz-adv-x="1193" />
<glyph unicode="?" horiz-adv-x="1116" d="M45 969q25 43 86 75q45 25 135 50q80 22 301 18q223 -4 361 -98q141 -98 147 -187q6 -90 -69.5 -163.5t-225.5 -104.5q-152 -31 -245 -82q-96 -51 20 -135q-31 -84 -119 -84q-109 98 -86 203q20 100 121 137q94 35 211 57q113 20 188 78q74 55 10.5 139t-190.5 109 q-121 25 -264 20q-139 -4 -297 -120q-72 25 -84 88zM364.5 80q22.5 80 114.5 73.5t99 -61.5q6 -57 -29 -92q-37 -37 -121 -18q-86 18 -63.5 98z" />
<glyph unicode="@" horiz-adv-x="2078" />
<glyph unicode="A" horiz-adv-x="1282" d="M-82 43l625 1049q23 17 51 17q45 0 102 -46l666 -1008q-18 -60 -104 -60q-18 0 -39 3l-158 227l-901 -67l-107 -189q-21 -4 -39 -4q-81 0 -96 78zM219 293l793 49l-410 602z" />
<glyph unicode="B" horiz-adv-x="1409" d="M10 -2v897q-37 34 -37 64q0 32 41 59q315 82 555 86h38q219 0 333 -37q133 -43 188 -123q16 -23 16 -51q0 -68 -97 -168q199 -41 276.5 -131t77.5 -202q0 -124 -80 -208q-78 -80 -377 -164q-173 -48 -460 -48q-209 0 -474 26zM147 129q296 -38 479 -37q106 0 169 12 q163 34 264 62t153 92q46 57 47 137q0 13 -2 27q-8 100 -94 151.5t-354 67.5q-66 4 -140 4q-229 0 -522 -37v-479zM152 934l2 -207q143 25 375 25q178 0 405 -15q56 67 56 115q0 19 -9 35q-31 57 -119 88q-84 29 -265 29h-34q-202 -2 -411 -70z" />
<glyph unicode="C" horiz-adv-x="1472" d="M49 307q-28 65 -28 138q0 101 55 217q95 200 270 294q182 98 330 125q98 17 190 18q59 0 117 -7q160 -20 434 -121q15 -24 15 -45q0 -48 -80 -78q-129 63 -207 86q-72 20 -184 45q-51 11 -105 11t-111 -11q-119 -23 -237 -72q-127 -53 -203 -125q-74 -72 -119 -194 q-26 -71 -25 -128q0 -38 11 -69q27 -74 94 -141q70 -70 154 -98q88 -31 225 -56q61 -11 127 -11q77 0 162 15q152 27 399 176q100 -14 101 -73q-18 -39 -140 -113q-127 -78 -323 -108q-95 -15 -192 -15q-109 0 -220 19q-217 37 -328 100q-112 63 -182 221z" />
<glyph unicode="D" horiz-adv-x="1431" d="M4 1051q3 37 55 49q13 3 25 3q39 0 76 -32q352 39 565 39h31q233 -2 405 -78q170 -74 225 -190q41 -86 41 -177q0 -34 -6 -69q-23 -131 -92 -248q-74 -123 -215 -211q-156 -96 -354 -135q-186 -36 -570 -36q-56 0 -116 1q-51 8 -56 66zM160 125q185 -13 317 -13 q159 0 252 19q178 37 295 117q121 82 170 157.5t72 176.5q8 35 7 69q0 61 -24 117q-39 90 -172 154q-139 68 -303 69h-14q-177 0 -596 -69z" />
<glyph unicode="E" horiz-adv-x="1236" d="M51 39l4 940q-46 35 -46 65q0 35 61 68l1030 18q42 -29 42 -58q0 -26 -34 -52l-911 -31l-2 -184l907 37q41 -29 41 -59q0 -29 -37 -60l-911 -37v-573l964 24q42 -24 42 -57q0 -30 -34 -68l-979 -39h-10q-115 0 -127 66z" />
<glyph unicode="F" horiz-adv-x="1069" d="M8 -10v989q-37 26 -37 51q0 32 64 64l952 12q35 -32 35 -60q0 -31 -43 -57l-836 -22l7 -185l821 23q36 -31 36 -63q0 -30 -32 -58l-830 -22v-680q-34 -35 -66 -36q-37 1 -71 44z" />
<glyph unicode="G" horiz-adv-x="1472" d="M49 307q-28 65 -28 138q0 101 55 217q95 200 270 294q182 98 330 125q98 17 190 18q59 0 117 -7q160 -20 434 -121q15 -24 15 -45q0 -48 -80 -78q-129 63 -207 86q-72 20 -184 45q-51 11 -105 11t-111 -11q-119 -23 -237 -72q-127 -53 -203 -125q-74 -72 -119 -194 q-26 -71 -25 -128q0 -38 11 -69q27 -74 94 -141q70 -70 154 -98q88 -31 225 -56q61 -11 127 -11q77 0 162 15q154 29 364 162v184l-417 -32q-47 25 -48 58q0 31 44 67l456 36q11 1 21 2q74 0 88 -61v-643q-31 -31 -62 -31q-39 0 -77 47v211q-139 -88 -332 -118 q-95 -15 -192 -15q-109 0 -220 19q-217 37 -328 100q-112 63 -182 221z" />
<glyph unicode="H" horiz-adv-x="1310" d="M14 1081q28 42 66 42q39 0 92 -46v-278l981 49l-4 264q33 29 65 29q40 0 76 -43l13 -1102q-30 -16 -63 -16q-37 0 -73 20l-10 727l-985 -41l-2 -690q-45 -35 -82 -35q-35 0 -65 31z" />
<glyph unicode="I" horiz-adv-x="497" d="M182 1073q31 42 71 42q31 0 69 -25v-1108q-34 -35 -67 -36q-37 0 -71 44z" />
<glyph unicode="J" horiz-adv-x="950" d="M39 190q-4 32 17.5 48t68.5 16h18q68 -92 140 -129q66 -35 166 -41q13 -1 26 -1l158 32q88 35 129 110q21 38 20 272q0 209 -16 595q31 34 65 33.5t72 -33.5q9 -346 9 -558q0 -289 -17 -339q-33 -92 -88 -132q-63 -43 -158 -75q-72 -25 -164 -25q-38 0 -79 4 q-147 16 -238 76q-92 61 -129 147z" />
<glyph unicode="K" horiz-adv-x="1124" d="M43 1094q29 22 59 22q42 0 84 -43l-2 -285l793 363h10q64 0 64 -62q0 -12 -2 -26l-762 -348l887 -684q-10 -82 -67 -82q-12 0 -26 4l-901 678l4 -621q-40 -29 -75 -29t-64 29z" />
<glyph unicode="L" horiz-adv-x="1032" d="M23 1098q31 18 63 18q39 0 80 -26v-1022l813 38q44 -35 44 -69q0 -27 -26 -53l-942 -45q-56 29 -56 59q0 24 34 47z" />
<glyph unicode="M" horiz-adv-x="1630" d="M25 1116q30 32 69 32q46 0 101 -44l616 -989l641 1059q28 11 53 10q53 0 92 -49l13 -1131q-39 -34 -82 -34q-27 0 -55 14l-7 952l-589 -977q-33 -18 -63 -18q-42 0 -77 36l-567 922l6 -913q-43 -25 -80 -25q-33 0 -63 19z" />
<glyph unicode="N" horiz-adv-x="1308" d="M59 1104q21 24 55 24q44 0 109 -41l934 -960l-12 971q35 34 69 34t68 -34l2 -1092q-38 -34 -86 -34q-40 0 -90 24l-922 919l15 -917q-36 -23 -73 -23l-62 17z" />
<glyph unicode="O" horiz-adv-x="1568" d="M23 477q0 10 -1 21q0 180 154 360q162 190 463 240q131 22 236 21q135 0 223 -36q164 -68 288 -204q106 -116 107 -273q0 -37 -6 -76q-31 -207 -184 -342q-156 -137 -371 -192q-109 -28 -221 -28q-109 0 -222 26q-223 51 -339 174q-119 125 -127 309zM156 508 q0 -137 88 -246q89 -111 282 -160q92 -23 182 -23q98 0 193 27q176 51 316 162q137 109 149 260q1 16 1 32q0 132 -91 243q-104 125 -232 176q-71 28 -175 28q-88 0 -199 -20q-246 -43 -379 -194q-135 -154 -135 -285z" />
<glyph unicode="P" horiz-adv-x="1169" d="M29 1108q154 12 430 27q84 4 159 4q141 0 254 -15q170 -23 244 -145q27 -44 27 -85q0 -72 -86 -134q-135 -98 -293 -142q-116 -32 -366 -31q-99 0 -218 5v-598q-50 -42 -84 -42q-32 0 -55 36l-8 999q-47 24 -48 54q1 30 44 67zM176 987l2 -278q98 -2 180 -3q245 0 347 21 q125 27 233 94q62 40 62 81q0 25 -23 48q-61 61 -248 74q-35 2 -76 2q-167 0 -477 -39z" />
<glyph unicode="Q" horiz-adv-x="1568" d="M23 477q0 10 -1 21q0 180 154 360q162 190 463 240q131 22 236 21q135 0 223 -36q164 -68 288 -204q106 -116 107 -273q0 -37 -6 -76q-31 -209 -236 -380l242 -177q0 -78 -96 -88l-256 187q-299 -93 -503 -93q-82 0 -149 15q-223 51 -339 174q-119 125 -127 309zM156 508 q0 -137 88 -246q89 -111 282 -160q58 -15 130 -14q163 0 403 76l-326 260q-2 12 -2 21q0 54 72 55q15 0 33 -2l321 -256q197 137 209 286q1 16 1 32q0 132 -91 243q-104 125 -232 176q-71 28 -175 28q-88 0 -199 -20q-246 -43 -379 -194q-135 -154 -135 -285z" />
<glyph unicode="R" horiz-adv-x="1189" d="M37 1108q154 12 430 27q84 4 160 4q143 0 256 -15q168 -20 245 -182q27 -57 28 -109q0 -93 -89 -167q-138 -117 -295 -160q-116 -32 -265 -32q-60 0 -126 5l776 -483q10 -25 10 -43q0 -51 -72 -51q-14 0 -30 2l-879 551l4 -461q-50 -42 -85 -42q-33 0 -56 36l-8 989 q-41 21 -41 54q0 32 37 77zM186 987v-416q391 14 527 43q133 27 237 113q64 53 64 109q0 36 -25 75q-63 100 -250 113q-35 2 -76 2q-167 0 -477 -39z" />
<glyph unicode="S" horiz-adv-x="1449" d="M31 84q10 94 84 106q127 -76 270 -102q89 -16 192 -16q81 0 168 10q211 25 347 92q137 68 180 182q12 31 11 59q0 76 -85 134q-115 78 -280 94q-52 5 -106 5q-112 0 -230.5 -21.5t-206.5 -21.5q-42 0 -78 5q-119 16 -186 78q-50 46 -50 104q0 25 9 52q29 88 120 145 q94 59 213 94q117 35 242 45q88 7 171 7h54q108 -3 375 -68q6 -22 6 -40q0 -51 -47 -69q-205 53 -377 54q-47 0 -92 -4q-203 -18 -352 -66q-144 -46 -160 -98q-3 -9 -2 -17q0 -42 68 -75q43 -21 115 -21q65 0 157 17q131 23 252 23q55 0 109 -5q168 -14 315 -78 q143 -61 174 -178q12 -45 12 -87q0 -67 -30 -126q-51 -98 -197 -203q-152 -109 -430 -139q-149 -16 -260 -16q-103 0 -176 14q-156 31 -299 131z" />
<glyph unicode="T" horiz-adv-x="1363" d="M39 961q-30 24 -30 54q0 33 36 70l1272 72q42 -29 41 -59q0 -28 -35 -58l-569 -34l4 -1026q-37 -29 -71 -29q-38 0 -71 39l-8 1003z" />
<glyph unicode="U" horiz-adv-x="1419" d="M39 1087q29 35 65 36q38 0 82 -42q-11 -320 -11 -523q0 -305 26 -357q43 -88 131 -131q55 -26 159 -27q58 0 134 8q197 20 336 72q133 49 190 114.5t72 157.5q11 66 11 379q0 154 -3 354q29 22 57 22l72 -34q14 -334 14 -520q0 -140 -8 -199q-18 -133 -106.5 -243.5 t-243.5 -155.5q-157 -46 -289 -61q-141 -16 -246 -17q-113 0 -235.5 37t-177.5 152q-38 77 -38 496q0 202 9 482z" />
<glyph unicode="V" horiz-adv-x="1384" d="M-66 1032q0 83 91 84q23 0 53 -6l588 -965l675 953q32 11 56 10q58 0 71 -64l-718 -1050q-48 -22 -88 -22q-56 0 -97 42z" />
<glyph unicode="W" horiz-adv-x="1536" d="M-23 1126q36 34 80 35q33 0 68 -20l201 -961l352 821q29 33 78 33q42 0 96 -24l340 -840l227 973q29 13 56 13q44 0 84 -34l-263 -1108q-35 -45 -90 -44q-36 0 -82 18l-370 841l-348 -813q-68 -43 -120 -43q-44 0 -75 31z" />
<glyph unicode="X" horiz-adv-x="1306" d="M-49 72l602 487l-498 510q45 68 117 84l485 -502l584 504q93 0 93 -65q0 -6 -1 -13l-588 -512l555 -514q-25 -76 -102 -88l-547 500l-602 -490q-10 -2 -18 -1q-61 0 -80 100z" />
<glyph unicode="Y" horiz-adv-x="1212" d="M-104 1057l-2 14q0 68 101 68h15l527 -437l702 465q97 -5 97 -62q0 -14 -5 -30l-710 -491l8 -586q-39 -38 -81 -38q-40 0 -77 36l2 577z" />
<glyph unicode="Z" horiz-adv-x="1363" d="M59 61l992 916l-961 -19q-30 33 -30 63q0 34 38 64l1182 25q37 -17 37 -48q0 -32 -39 -81l-1030 -911l1034 61q68 -25 68 -68q0 -37 -50 -88l-1230 -43q-33 13 -33 50q-1 31 22 79z" />
<glyph unicode="[" horiz-adv-x="567" />
<glyph unicode="\" horiz-adv-x="567" />
<glyph unicode="]" horiz-adv-x="567" />
<glyph unicode="^" horiz-adv-x="960" />
<glyph unicode="_" />
<glyph unicode="`" horiz-adv-x="796" d="M285 1176q0 16 8 26q20 63 65 64q25 0 56 -19q119 -66 182 -276l-47 -58q-96 177 -264 263z" />
<glyph unicode="a" horiz-adv-x="976" d="M35 96q-17 34 -17 66q0 90 136 168q180 102 647 106q4 23 4 44q0 92 -92 122q-96 31 -186 31q-26 0 -52 -2q-125 -12 -260 -99q-39 23 -39 54q0 23 23 51q127 94 362 94q238 0 295 -74q57 -72 70 -200v-459q-39 -25 -72 -25q-26 0 -49 15v168q-205 -170 -457 -181 q-17 -1 -33 0q-221 0 -280 121zM166 135q30 -65 169 -65q22 0 46 2q184 12 416 180l2 90q-440 -14 -555 -74q-86 -44 -86 -99q0 -16 8 -34z" />
<glyph unicode="b" horiz-adv-x="1124" d="M59 1020q11 2 25 2q38 0 98 -18l2 -467q227 72 426 98q60 8 116 8q134 0 245 -47q104 -44 104 -145q0 -54 -31 -123q-86 -199 -374 -293q-130 -43 -241 -43q-139 0 -249 67v-67q-36 -21 -60 -21q-41 0 -52 60zM180 422l2 -246q115 -85 254 -85q80 0 168 28 q242 78 324 209q36 57 36 100q0 57 -63 90q-66 35 -162 35q-61 0 -133 -14q-201 -41 -426 -117z" />
<glyph unicode="c" horiz-adv-x="1126" d="M33 227q-2 14 -2 28q0 109 106 220q121 127 357 195q127 37 279 37q130 0 276 -27q7 -19 7 -35q0 -39 -40 -61q-135 17 -246 16q-136 0 -242 -25q-195 -47 -307 -186q-58 -73 -58 -132q0 -57 52 -103q96 -85 248 -86q19 0 39 2q174 12 534 145q52 -20 52 -61 q0 -17 -9 -37q-440 -141 -606 -142q-160 0 -295 68q-131 65 -145 184z" />
<glyph unicode="d" horiz-adv-x="1112" d="M37 221q18 111 143 217q131 111 299 154q75 19 174 19q132 0 301 -33l2 409q28 25 58 25q29 0 61 -23l-2 -989q-40 -28 -69 -28q-34 0 -54 36l-4 121l-250 -90q-115 -41 -293 -53q-26 -2 -50 -2q-143 0 -232 59q-87 58 -87 146q0 15 3 32zM162 207q-1 -8 -1 -15 q0 -89 142 -106q39 -5 79 -5q115 0 243 40q156 49 323 143l2 207q-196 29 -311 29q-82 0 -127 -15q-117 -39 -225 -106q-113 -70 -125 -172z" />
<glyph unicode="e" horiz-adv-x="1142" d="M55 152q-39 62 -39 123q0 70 50 139q90 125 229 198q135 72 285 99q67 12 137 12q91 0 186 -21q172 -37 191 -153q1 -8 1 -15q0 -106 -243 -217q-196 -89 -496 -88q-95 0 -200 9q23 -88 141 -127q87 -29 212 -29q48 0 103 4q195 14 426 141q75 -28 75 -90q0 -7 -1 -14 q-102 -47 -174 -74q-51 -18 -150 -47q-74 -20 -167 -25h-25q-95 0 -264 19q-193 21 -277 156zM158 336q107 -8 200 -8q265 0 418 65q183 78 184 138q0 8 -4 16q-27 63 -174 69q-13 1 -27 1q-141 0 -323 -58q-204 -65 -274 -223z" />
<glyph unicode="f" horiz-adv-x="655" d="M-4 485q-15 27 -15 53q0 27 17 54l123 16q-3 50 -3 93q0 184 54 243q70 76 195 100q45 9 92 9q90 0 188 -31q15 -25 15 -44q0 -34 -48 -50q-99 16 -169 16q-94 0 -142 -29q-63 -37 -63 -195q0 -48 6 -108l422 23q27 -35 27 -64q0 -25 -21 -45l-422 -18l6 -551 q-33 -25 -65 -25q-28 0 -56 19l-8 538z" />
<glyph unicode="g" horiz-adv-x="1177" d="M6 238q23 139 174 241q160 109 322 150q186 47 270 57q50 6 121 6q82 0 190 -8q73 -391 73 -628q0 -283 -103 -347q-181 -111 -380 -110h-11q-203 4 -525 98q-29 31 -29 55q0 35 62 53q340 -94 498 -94q152 0 286 82q89 54 89 239q0 90 -21 210q-178 -217 -461 -250 q-87 -10 -162 -11q-163 0 -266 50q-130 62 -130 174q0 16 3 33zM150 283q-25 -45 -26 -81q0 -67 93 -96q80 -24 178 -24q80 0 168 16q207 37 449 279l-33 192q-71 7 -138 7q-220 0 -392 -70q-225 -92 -299 -223z" />
<glyph unicode="h" horiz-adv-x="952" d="M39 1001q19 29 45 30q28 0 63 -36l5 -487q209 141 393 164q40 5 75 4q127 0 199 -60q94 -78 103 -215q1 -14 1 -29q0 -136 -73 -384q-34 -23 -62 -24q-34 0 -55 36q68 225 68 353v20q-6 137 -96 180q-55 26 -124 26q-46 0 -98 -12q-137 -33 -323 -196l2 -367 q-36 -36 -67 -36q-27 0 -52 28z" />
<glyph unicode="i" horiz-adv-x="290" d="M102 713q30 19 58 19q34 0 63 -30q-26 -175 -26 -350q0 -182 28 -364q-35 -23 -64 -23q-26 0 -48 17q-26 203 -27 409q0 161 16 322z" />
<glyph unicode="j" horiz-adv-x="763" d="M61 -78q33 27 75 28q24 0 52 -9q-13 -56 -13 -99q0 -96 67 -123q41 -16 85 -15q59 0 124 28q117 51 129 192q5 59 5 208q0 198 -10 581q29 23 56 23q29 0 55 -27q15 -347 15 -562t-15 -294q-31 -158 -182 -218q-87 -34 -177 -33q-68 0 -137 19q-135 38 -134 220 q-1 37 5 81z" />
<glyph unicode="k" horiz-adv-x="1011" d="M66 1010q28 18 56.5 18t57.5 -18v-611l606 263q64 -12 64 -61q0 -13 -4 -28l-533 -225l662 -293q2 -12 2 -22q0 -54 -58 -54q-7 0 -16 1l-721 329l2 -325q-37 -34 -70 -34q-21 0 -42 13z" />
<glyph unicode="l" horiz-adv-x="290" d="M102 993q31 28 59 28q34 0 62 -40q-26 -242 -26 -483q0 -251 28 -502q-34 -31 -63 -31q-26 0 -49 25q-26 280 -27 561q0 220 16 442z" />
<glyph unicode="m" horiz-adv-x="1527" d="M66 688q26 26 56 27q29 0 62 -25l-2 -100q88 100 232 123q59 9 113 9q67 0 124 -13q92 -20 158 -138q113 156 299 158h18q174 0 244 -55q74 -59 98 -248l-6 -428q-40 -38 -71 -38q-29 0 -50 34q14 190 14 313q0 182 -30 234q-51 88 -192 92h-5q-137 0 -301 -178l-4 -478 q-41 -26 -70 -26q-33 0 -53 33v497q-8 106 -86 125q-26 6 -59 7q-59 0 -143 -21q-121 -29 -226 -143l2 -373v-109q-34 -31 -64 -30.5t-54 30.5z" />
<glyph unicode="n" horiz-adv-x="946" d="M66 688q26 26 56 27q29 0 62 -25l-2 -100q88 100 232 123q58 9 116 8q76 0 152 -14q127 -25 188 -150q36 -73 36 -257q0 -135 -19 -327q-41 -26 -71 -26q-33 0 -52 33q21 222 21 352q0 83 -9 131q-20 123 -131 141q-40 7 -83 7q-72 0 -150 -19q-121 -29 -226 -143l2 -373 v-109q-34 -31 -64 -30.5t-54 30.5z" />
<glyph unicode="o" horiz-adv-x="1218" d="M74 424q113 180 323 246q172 53 310 53q27 0 53 -2q145 -12 256 -64q102 -49 160 -186q18 -45 18 -88q0 -88 -78 -174q-113 -125 -276 -184q-160 -59 -367 -62h-9q-203 0 -351 139q-87 82 -87 176q0 69 48 146zM190 381q-22 -43 -22 -84q0 -72 70 -133q106 -94 266 -94 h10q168 2 324 59q150 53 204 188q16 41 17 77q0 79 -78 136q-115 84 -279 84q-168 0 -309.5 -57t-202.5 -176z" />
<glyph unicode="p" horiz-adv-x="1112" d="M45 -395l2 1071q41 29 70 29q33 0 53 -37l4 -62q150 57 254 76q102 19 228 19q18 0 36 -1q150 -4 260.5 -67.5t116.5 -222.5v-18q0 -148 -100 -236q-109 -96 -303 -111q-23 -2 -49 -2q-182 0 -449 98l4 -506q-38 -48 -79 -48q-24 1 -48 18zM170 250q261 -103 417 -103h17 q162 6 252 72q88 65 88 181q0 127 -139 167q-90 26 -193 26q-55 0 -114 -7q-174 -23 -326 -113z" />
<glyph unicode="q" horiz-adv-x="1112" d="M53 362q6 156 119 246q111 89 258 92q18 0 36 1q124 0 226 -19q109 -20 256 -76v68q18 28 44 28q33 0 81 -45l4 -1026q-46 -42 -88 -41q-20 0 -39 9l2 540q-287 -107 -476 -106h-11q-197 4 -305 86q-107 81 -107 227v16zM178 353q0 -114 98 -165q89 -46 211 -45h29 q139 6 434 113v217q-178 84 -332 102q-40 5 -77 5q-118 0 -222 -43q-141 -61 -141 -184z" />
<glyph unicode="r" horiz-adv-x="811" d="M66 688q26 26 56 27q29 0 62 -25l-2 -100q88 100 232 123q28 4 58 4q125 0 294 -70q12 -24 12 -42q0 -39 -55 -54q-126 50 -228 50q-44 0 -83 -9q-121 -29 -226 -143l2 -373v-109q-34 -31 -64 -30.5t-54 30.5z" />
<glyph unicode="s" horiz-adv-x="1032" d="M29 545q45 74 235 137q129 42 335 42q87 0 189 -7q16 -11 17 -31q0 -28 -33 -72q-80 2 -143 2q-142 0 -213 -10q-100 -14 -193 -45q-63 -21 -63 -56q0 -12 8 -26q19 -32 92 -31q47 0 117 13q162 31 307 31q123 0 215 -35q88 -33 107 -138q3 -18 3 -36q0 -84 -69 -166 q-82 -96 -326 -137q-66 -11 -139 -11q-194 0 -438 76q-25 30 -25 53q0 31 45 47q273 -63 440 -63q59 0 107 8q184 31 250 105q33 37 33 71q0 33 -31 66q-61 63 -201 63q-123 0 -315 -26q-51 -7 -95 -7q-112 0 -175 44q-57 39 -58 86q1 26 17 53z" />
<glyph unicode="t" horiz-adv-x="557" d="M0 567q-17 27 -17 50q0 39 48 65l184 4l-2 217q39 30 77 30q25 0 48 -13l2 -226l225 11q27 -20 27 -45q0 -29 -37 -68l-207 -4l10 -557q-26 -64 -68 -65q-29 0 -65 30l-12 577z" />
<glyph unicode="u" horiz-adv-x="901" d="M47 717q44 27 74 27q32 0 51 -31q-22 -237 -22 -365q0 -77 8 -121q20 -123 131 -141q54 -9 116.5 -9t133.5 9q143 18 176 86q33 66 33 256q0 70 -1.5 169t-1.5 128q35 31 65 31t54 -31q5 -137 6 -244q0 -328 -51 -395q-68 -90 -254 -109q-80 -8 -149 -7q-92 0 -164 14 q-125 25 -186 149q-36 74 -37 263q0 133 18 321z" />
<glyph unicode="v" horiz-adv-x="1048" d="M2 666q13 60 69 59q21 0 48 -8l364 -617l453 615q19 7 36 7q41 0 75 -38l-494 -684q-40 -40 -76 -40q-31 0 -57 30z" />
<glyph unicode="w" horiz-adv-x="1280" d="M-45 702q29 28 65 28q29 0 60 -17l188 -602l295 602q24 19 59 18q23 0 50 -8l264 -606l258 606q38 12 71 12q38 0 68 -16l-332 -737q-33 -28 -70 -28q-31 0 -65 19l-260 607l-287 -611q-32 -13 -64 -13q-27 0 -54 9z" />
<glyph unicode="x" horiz-adv-x="995" d="M-23 23l437 323l-346 293q5 68 77 68q18 0 39 -5l328 -276l354 313q100 0 107 -69l-379 -320l354 -313q-22 -67 -84 -67q-18 0 -39 5l-321 297l-406 -317h-10q-105 0 -111 68z" />
<glyph unicode="y" horiz-adv-x="1024" d="M-18 -303q-29 31 -29 55q0 35 61 53q340 -94 498 -94q150 0 285 82q89 54 88 239q0 90 -21 210q-178 -215 -387 -246q-75 -11 -136 -11q-112 0 -181 35q-109 55 -127 209q-3 23 -3 50q0 153 89 440q42 15 73 15q37 0 60 -21q-93 -289 -93 -436q0 -114 56 -142 q86 -43 177 -43q44 0 87 10q131 31 375 275l-41 313q34 36 70 37q21 0 43 -12q73 -405 73 -650q0 -292 -104 -356q-181 -111 -378 -110h-11q-202 4 -524 98z" />
<glyph unicode="z" horiz-adv-x="1003" d="M45 72l721 538l-674 -12q-18 32 -18 60q0 30 20 57l824 18q34 -8 34 -48q0 -24 -12 -60l-702 -551l704 16q38 -17 38 -43q0 -28 -42 -63l-862 -21q-6 -1 -12 -1q-33 0 -33 41q0 27 14 69z" />
<glyph unicode="{" horiz-adv-x="681" />
<glyph unicode="|" horiz-adv-x="530" />
<glyph unicode="}" horiz-adv-x="681" />
<glyph unicode="~" horiz-adv-x="1193" />
<glyph unicode="&#xa1;" horiz-adv-x="600" d="M180 12q15 141 49 824q68 61 123 -21q43 -676 0 -815q-80 -102 -172 12zM203 1028q-27 94 59 118.5t121 -67.5q33 -90 -59 -118.5t-121 67.5z" />
<glyph unicode="&#xa2;" />
<glyph unicode="&#xa3;" />
<glyph unicode="&#xa5;" />
<glyph unicode="&#xa6;" horiz-adv-x="530" />
<glyph unicode="&#xa7;" />
<glyph unicode="&#xa8;" horiz-adv-x="765" d="M119 1038q0 43 28 66q25 23 66 22q20 0 31 -2q55 -12 67 -82v-14q0 -55 -80 -74q-29 -4 -36 -4q-57 0 -70 54q-6 18 -6 34zM454.5 1020q-12.5 43 39.5 92q10 10 22 16q8 4 27 5q33 0 67 -33q20 -20 29 -37q6 -14 6 -29q0 -23 -22 -45q-16 -16 -37 -26q-16 -8 -37 -9 q-12 0 -29 4q-53 19 -65.5 62z" />
<glyph unicode="&#xa9;" horiz-adv-x="1507" />
<glyph unicode="&#xaa;" horiz-adv-x="757" />
<glyph unicode="&#xab;" />
<glyph unicode="&#xac;" horiz-adv-x="1193" />
<glyph unicode="&#xad;" horiz-adv-x="792" d="M76 532q-43 74 16 138l608 26q59 -66 -10 -137z" />
<glyph unicode="&#xae;" horiz-adv-x="1507" />
<glyph unicode="&#xb0;" horiz-adv-x="817" />
<glyph unicode="&#xb1;" horiz-adv-x="1122" />
<glyph unicode="&#xb2;" horiz-adv-x="681" />
<glyph unicode="&#xb3;" horiz-adv-x="681" />
<glyph unicode="&#xb4;" horiz-adv-x="796" d="M285 971q133 154 182 276q31 18 53 19q47 0 68 -64q8 -10 8 -26q-104 -152 -266 -263z" />
<glyph unicode="&#xb5;" horiz-adv-x="1179" />
<glyph unicode="&#xb6;" horiz-adv-x="1099" />
<glyph unicode="&#xb7;" horiz-adv-x="567" />
<glyph unicode="&#x2219;" horiz-adv-x="567" />
<glyph unicode="&#xb8;" horiz-adv-x="681" d="M186 -238q2 20 27 35q4 6 14 8q8 -8 13 -10q2 0 2 1t2 1q18 -16 41 -28q25 -10 39 -11q49 0 88 9q16 4 22 8q18 8 27 26q23 31 -4 54q-25 22 -62 30q-45 10 -69 23q-33 14 -39 53q-6 41 28 78h7l4 4t2 4q16 0 24 -8q23 -6 31 -33q-39 -31 -6 -51q2 0 5 -2t5 -4 q12 -6 53 -19q33 -8 45 -16q31 -14 47 -33q23 -27 23 -57v-6q-4 -37 -47 -72q-45 -35 -121 -39h-55q-52 0 -74 6q-33 12 -45 21q-19 12 -27 28z" />
<glyph unicode="&#xb9;" horiz-adv-x="681" />
<glyph unicode="&#xba;" horiz-adv-x="747" />
<glyph unicode="&#xbb;" />
<glyph unicode="&#xbc;" horiz-adv-x="1705" />
<glyph unicode="&#xbd;" horiz-adv-x="1705" />
<glyph unicode="&#xbe;" horiz-adv-x="1705" />
<glyph unicode="&#xbf;" horiz-adv-x="1116" d="M53 260q-6 90 70 164q80 76 223 106q154 33 248 82q96 51 -21 133q31 84 117 84q111 -100 88 -202q-20 -100 -121 -138q-92 -35 -213 -57q-115 -23 -186 -76q-74 -55 -10.5 -139t190.5 -108q131 -25 262 -23q137 2 297 123q72 -25 84 -88q-27 -43 -84 -76 q-51 -29 -135 -51q-72 -20 -301 -17q-225 4 -362 99q-140 96 -146 184zM551 995q-6 57 29 92q37 37 120 19q86 -18 64 -98q-20 -78 -115 -72q-92 6 -98 59z" />
<glyph unicode="&#xc0;" horiz-adv-x="1282" d="M-82 43l625 1049q23 17 51 17q45 0 102 -46l666 -1008q-18 -60 -104 -60q-18 0 -39 3l-158 227l-901 -67l-107 -189q-21 -4 -39 -4q-81 0 -96 78zM219 293l793 49l-410 602zM348 1559q0 16 8 26q20 63 65 64q25 0 56 -19q119 -66 182 -276l-47 -58q-96 177 -264 263z" />
<glyph unicode="&#xc1;" horiz-adv-x="1282" d="M-82 43l625 1049q23 17 51 17q45 0 102 -46l666 -1008q-18 -60 -104 -60q-18 0 -39 3l-158 227l-901 -67l-107 -189q-21 -4 -39 -4q-81 0 -96 78zM219 293l793 49l-410 602zM555 1358q133 154 182 276q31 18 53 19q47 0 68 -64q8 -10 8 -26q-104 -152 -266 -263z" />
<glyph unicode="&#xc2;" horiz-adv-x="1282" d="M-82 43l625 1049q23 17 51 17q45 0 102 -46l666 -1008q-18 -60 -104 -60q-18 0 -39 3l-158 227l-901 -67l-107 -189q-21 -4 -39 -4q-81 0 -96 78zM219 293l793 49l-410 602zM344 1329l199 207q29 23 57 22q27 0 46 -16l157 -207q-8 -35 -53 -35q-23 0 -37 4l-117 170 l-166 -164q-20 -4 -28 -4q-31 0 -58 23z" />
<glyph unicode="&#xc3;" horiz-adv-x="1282" d="M-82 43l625 1049q23 17 51 17q45 0 102 -46l666 -1008q-18 -60 -104 -60q-18 0 -39 3l-158 227l-901 -67l-107 -189q-21 -4 -39 -4q-81 0 -96 78zM219 293l793 49l-410 602zM317 1342l123 176h10q29 0 68 -27l200 -108l101 123q23 12 84 -21l-127 -182q0 -4 -11 -4 q-20 0 -81 18l-189 109l-96 -117q-18 6 -40 15.5z" />
<glyph unicode="&#xc4;" horiz-adv-x="1282" d="M-82 43l625 1049q23 17 51 17q45 0 102 -46l666 -1008q-18 -60 -104 -60q-18 0 -39 3l-158 227l-901 -67l-107 -189q-21 -4 -39 -4q-81 0 -96 78zM219 293l793 49l-410 602zM324 1454q0 43 28 66q25 23 66 22q20 0 31 -2q55 -12 67 -82v-14q0 -55 -80 -74q-29 -4 -36 -4 q-57 0 -70 54q-6 18 -6 34zM659.5 1436q-12.5 43 39.5 92q10 10 22 16q8 4 27 5q33 0 67 -33q20 -20 29 -37q6 -14 6 -29q0 -23 -22 -45q-16 -16 -37 -26q-16 -8 -37 -9q-12 0 -29 4q-53 19 -65.5 62z" />
<glyph unicode="&#xc5;" horiz-adv-x="1363" />
<glyph unicode="&#xc6;" horiz-adv-x="2048" />
<glyph unicode="&#xc7;" horiz-adv-x="1472" d="M49 307q-28 65 -28 138q0 101 55 217q95 200 270 294q182 98 330 125q98 17 190 18q59 0 117 -7q160 -20 434 -121q15 -24 15 -45q0 -48 -80 -78q-129 63 -207 86q-72 20 -184 45q-51 11 -105 11t-111 -11q-119 -23 -237 -72q-127 -53 -203 -125q-74 -72 -119 -194 q-26 -71 -25 -128q0 -38 11 -69q27 -74 94 -141q70 -70 154 -98q88 -31 225 -56q61 -11 127 -11q77 0 162 15q152 27 399 176q100 -14 101 -73q-18 -39 -140 -113q-127 -78 -323 -108q-95 -15 -192 -15q-109 0 -220 19q-217 37 -328 100q-112 63 -182 221zM571 -330 q2 20 27 35q4 6 14 8q8 -8 13 -10q2 0 2 1t2 1q18 -16 41 -28q25 -10 39 -11q49 0 88 9q16 4 22 8q18 8 27 26q23 31 -4 54q-25 22 -62 30q-45 10 -69 23q-33 14 -39 53q-6 41 28 78h7l4 4t2 4q16 0 24 -8q23 -6 31 -33q-39 -31 -6 -51q2 0 5 -2t5 -4q12 -6 53 -19 q33 -8 45 -16q31 -14 47 -33q23 -27 23 -57v-6q-4 -37 -47 -72q-45 -35 -121 -39h-55q-52 0 -74 6q-33 12 -45 21q-19 12 -27 28z" />
<glyph unicode="&#xc8;" horiz-adv-x="1236" d="M51 39l4 940q-46 35 -46 65q0 35 61 68l1030 18q42 -29 42 -58q0 -26 -34 -52l-911 -31l-2 -184l907 37q41 -29 41 -59q0 -29 -37 -60l-911 -37v-573l964 24q42 -24 42 -57q0 -30 -34 -68l-979 -39h-10q-115 0 -127 66zM367 1567q0 16 8 26q20 63 65 64q25 0 56 -19 q119 -66 182 -276l-47 -58q-96 177 -264 263z" />
<glyph unicode="&#xc9;" horiz-adv-x="1236" d="M51 39l4 940q-46 35 -46 65q0 35 61 68l1030 18q42 -29 42 -58q0 -26 -34 -52l-911 -31l-2 -184l907 37q41 -29 41 -59q0 -29 -37 -60l-911 -37v-573l964 24q42 -24 42 -57q0 -30 -34 -68l-979 -39h-10q-115 0 -127 66zM535 1356q133 154 182 276q31 18 53 19 q47 0 68 -64q8 -10 8 -26q-104 -152 -266 -263z" />
<glyph unicode="&#xca;" horiz-adv-x="1236" d="M51 39l4 940q-46 35 -46 65q0 35 61 68l1030 18q42 -29 42 -58q0 -26 -34 -52l-911 -31l-2 -184l907 37q41 -29 41 -59q0 -29 -37 -60l-911 -37v-573l964 24q42 -24 42 -57q0 -30 -34 -68l-979 -39h-10q-115 0 -127 66zM378 1333l199 207q29 23 57 22q27 0 46 -16 l157 -207q-8 -35 -53 -35q-23 0 -37 4l-117 170l-166 -164q-20 -4 -28 -4q-31 0 -58 23z" />
<glyph unicode="&#xcb;" horiz-adv-x="1236" d="M51 39l4 940q-46 35 -46 65q0 35 61 68l1030 18q42 -29 42 -58q0 -26 -34 -52l-911 -31l-2 -184l907 37q41 -29 41 -59q0 -29 -37 -60l-911 -37v-573l964 24q42 -24 42 -57q0 -30 -34 -68l-979 -39h-10q-115 0 -127 66zM346 1464q0 43 28 66q25 23 66 22q20 0 31 -2 q55 -12 67 -82v-14q0 -55 -80 -74q-29 -4 -36 -4q-57 0 -70 54q-6 18 -6 34zM681.5 1446q-12.5 43 39.5 92q10 10 22 16q8 4 27 5q33 0 67 -33q20 -20 29 -37q6 -14 6 -29q0 -23 -22 -45q-16 -16 -37 -26q-16 -8 -37 -9q-12 0 -29 4q-53 19 -65.5 62z" />
<glyph unicode="&#xcc;" horiz-adv-x="497" d="M182 1073q31 42 71 42q31 0 69 -25v-1108q-34 -35 -67 -36q-37 0 -71 44zM-8 1571q0 16 8 26q20 63 65 64q25 0 56 -19q119 -66 182 -276l-47 -58q-96 177 -264 263z" />
<glyph unicode="&#xcd;" horiz-adv-x="497" d="M182 1073q31 42 71 42q31 0 69 -25v-1108q-34 -35 -67 -36q-37 0 -71 44zM211 1350q133 154 182 276q31 18 53 19q47 0 68 -64q8 -10 8 -26q-104 -152 -266 -263z" />
<glyph unicode="&#xce;" horiz-adv-x="497" d="M182 1073q31 42 71 42q31 0 69 -25v-1108q-34 -35 -67 -36q-37 0 -71 44zM32 1329l199 207q29 23 57 22q27 0 46 -16l157 -207q-8 -35 -53 -35q-23 0 -37 4l-117 170l-166 -164q-20 -4 -28 -4q-31 0 -58 23z" />
<glyph unicode="&#xcf;" horiz-adv-x="497" d="M182 1073q31 42 71 42q31 0 69 -25v-1108q-34 -35 -67 -36q-37 0 -71 44zM-14 1446q0 43 28 66q25 23 66 22q20 0 31 -2q55 -12 67 -82v-14q0 -55 -80 -74q-29 -4 -36 -4q-57 0 -70 54q-6 18 -6 34zM321.5 1428q-12.5 43 39.5 92q10 10 22 16q8 4 27 5q33 0 67 -33 q20 -20 29 -37q6 -14 6 -29q0 -23 -22 -45q-16 -16 -37 -26q-16 -8 -37 -9q-12 0 -29 4q-53 19 -65.5 62z" />
<glyph unicode="&#xd0;" horiz-adv-x="1478" />
<glyph unicode="&#xd1;" horiz-adv-x="1308" d="M59 1104q21 24 55 24q44 0 109 -41l934 -960l-12 971q35 34 69 34t68 -34l2 -1092q-38 -34 -86 -34q-40 0 -90 24l-922 919l15 -917q-36 -23 -73 -23l-62 17zM356 1346l123 176h10q29 0 68 -27l200 -108l101 123q23 12 84 -21l-127 -182q0 -4 -11 -4q-20 0 -81 18 l-189 109l-96 -117q-18 6 -40 15.5z" />
<glyph unicode="&#xd2;" horiz-adv-x="1568" d="M23 477q0 10 -1 21q0 180 154 360q162 190 463 240q131 22 236 21q135 0 223 -36q164 -68 288 -204q106 -116 107 -273q0 -37 -6 -76q-31 -207 -184 -342q-156 -137 -371 -192q-109 -28 -221 -28q-109 0 -222 26q-223 51 -339 174q-119 125 -127 309zM156 508 q0 -137 88 -246q89 -111 282 -160q92 -23 182 -23q98 0 193 27q176 51 316 162q137 109 149 260q1 16 1 32q0 132 -91 243q-104 125 -232 176q-71 28 -175 28q-88 0 -199 -20q-246 -43 -379 -194q-135 -154 -135 -285zM525 1567q0 16 8 26q20 63 65 64q25 0 56 -19 q119 -66 182 -276l-47 -58q-96 177 -264 263z" />
<glyph unicode="&#xd3;" horiz-adv-x="1568" d="M23 477q0 10 -1 21q0 180 154 360q162 190 463 240q131 22 236 21q135 0 223 -36q164 -68 288 -204q106 -116 107 -273q0 -37 -6 -76q-31 -207 -184 -342q-156 -137 -371 -192q-109 -28 -221 -28q-109 0 -222 26q-223 51 -339 174q-119 125 -127 309zM156 508 q0 -137 88 -246q89 -111 282 -160q92 -23 182 -23q98 0 193 27q176 51 316 162q137 109 149 260q1 16 1 32q0 132 -91 243q-104 125 -232 176q-71 28 -175 28q-88 0 -199 -20q-246 -43 -379 -194q-135 -154 -135 -285zM711 1366q133 154 182 276q31 18 53 19q47 0 68 -64 q8 -10 8 -26q-104 -152 -266 -263z" />
<glyph unicode="&#xd4;" horiz-adv-x="1568" d="M23 477q0 10 -1 21q0 180 154 360q162 190 463 240q131 22 236 21q135 0 223 -36q164 -68 288 -204q106 -116 107 -273q0 -37 -6 -76q-31 -207 -184 -342q-156 -137 -371 -192q-109 -28 -221 -28q-109 0 -222 26q-223 51 -339 174q-119 125 -127 309zM156 508 q0 -137 88 -246q89 -111 282 -160q92 -23 182 -23q98 0 193 27q176 51 316 162q137 109 149 260q1 16 1 32q0 132 -91 243q-104 125 -232 176q-71 28 -175 28q-88 0 -199 -20q-246 -43 -379 -194q-135 -154 -135 -285zM559 1329l199 207q29 23 57 22q27 0 46 -16l157 -207 q-8 -35 -53 -35q-23 0 -37 4l-117 170l-166 -164q-20 -4 -28 -4q-31 0 -58 23z" />
<glyph unicode="&#xd5;" horiz-adv-x="1568" d="M23 477q0 10 -1 21q0 180 154 360q162 190 463 240q131 22 236 21q135 0 223 -36q164 -68 288 -204q106 -116 107 -273q0 -37 -6 -76q-31 -207 -184 -342q-156 -137 -371 -192q-109 -28 -221 -28q-109 0 -222 26q-223 51 -339 174q-119 125 -127 309zM156 508 q0 -137 88 -246q89 -111 282 -160q92 -23 182 -23q98 0 193 27q176 51 316 162q137 109 149 260q1 16 1 32q0 132 -91 243q-104 125 -232 176q-71 28 -175 28q-88 0 -199 -20q-246 -43 -379 -194q-135 -154 -135 -285zM479 1346l123 176h10q29 0 68 -27l200 -108l101 123 q23 12 84 -21l-127 -182q0 -4 -11 -4q-20 0 -81 18l-189 109l-96 -117q-18 6 -40 15.5z" />
<glyph unicode="&#xd6;" horiz-adv-x="1568" d="M23 477q0 10 -1 21q0 180 154 360q162 190 463 240q131 22 236 21q135 0 223 -36q164 -68 288 -204q106 -116 107 -273q0 -37 -6 -76q-31 -207 -184 -342q-156 -137 -371 -192q-109 -28 -221 -28q-109 0 -222 26q-223 51 -339 174q-119 125 -127 309zM156 508 q0 -137 88 -246q89 -111 282 -160q92 -23 182 -23q98 0 193 27q176 51 316 162q137 109 149 260q1 16 1 32q0 132 -91 243q-104 125 -232 176q-71 28 -175 28q-88 0 -199 -20q-246 -43 -379 -194q-135 -154 -135 -285zM488 1450q0 43 28 66q25 23 66 22q20 0 31 -2 q55 -12 67 -82v-14q0 -55 -80 -74q-29 -4 -36 -4q-57 0 -70 54q-6 18 -6 34zM823.5 1432q-12.5 43 39.5 92q10 10 22 16q8 4 27 5q33 0 67 -33q20 -20 29 -37q6 -14 6 -29q0 -23 -22 -45q-16 -16 -37 -26q-16 -8 -37 -9q-12 0 -29 4q-53 19 -65.5 62z" />
<glyph unicode="&#xd7;" horiz-adv-x="1193" />
<glyph unicode="&#xd8;" horiz-adv-x="1591" />
<glyph unicode="&#xd9;" horiz-adv-x="1419" d="M39 1087q29 35 65 36q38 0 82 -42q-11 -320 -11 -523q0 -305 26 -357q43 -88 131 -131q55 -26 159 -27q58 0 134 8q197 20 336 72q133 49 190 114.5t72 157.5q11 66 11 379q0 154 -3 354q29 22 57 22l72 -34q14 -334 14 -520q0 -140 -8 -199q-18 -133 -106.5 -243.5 t-243.5 -155.5q-157 -46 -289 -61q-141 -16 -246 -17q-113 0 -235.5 37t-177.5 152q-38 77 -38 496q0 202 9 482zM449 1559q0 16 8 26q20 63 65 64q25 0 56 -19q119 -66 182 -276l-47 -58q-96 177 -264 263z" />
<glyph unicode="&#xda;" horiz-adv-x="1419" d="M39 1087q29 35 65 36q38 0 82 -42q-11 -320 -11 -523q0 -305 26 -357q43 -88 131 -131q55 -26 159 -27q58 0 134 8q197 20 336 72q133 49 190 114.5t72 157.5q11 66 11 379q0 154 -3 354q29 22 57 22l72 -34q14 -334 14 -520q0 -140 -8 -199q-18 -133 -106.5 -243.5 t-243.5 -155.5q-157 -46 -289 -61q-141 -16 -246 -17q-113 0 -235.5 37t-177.5 152q-38 77 -38 496q0 202 9 482zM621 1346q133 154 182 276q31 18 53 19q47 0 68 -64q8 -10 8 -26q-104 -152 -266 -263z" />
<glyph unicode="&#xdb;" horiz-adv-x="1419" d="M39 1087q29 35 65 36q38 0 82 -42q-11 -320 -11 -523q0 -305 26 -357q43 -88 131 -131q55 -26 159 -27q58 0 134 8q197 20 336 72q133 49 190 114.5t72 157.5q11 66 11 379q0 154 -3 354q29 22 57 22l72 -34q14 -334 14 -520q0 -140 -8 -199q-18 -133 -106.5 -243.5 t-243.5 -155.5q-157 -46 -289 -61q-141 -16 -246 -17q-113 0 -235.5 37t-177.5 152q-38 77 -38 496q0 202 9 482zM477 1337l199 207q29 23 57 22q27 0 46 -16l157 -207q-8 -35 -53 -35q-23 0 -37 4l-117 170l-166 -164q-20 -4 -28 -4q-31 0 -58 23z" />
<glyph unicode="&#xdc;" horiz-adv-x="1419" d="M39 1087q29 35 65 36q38 0 82 -42q-11 -320 -11 -523q0 -305 26 -357q43 -88 131 -131q55 -26 159 -27q58 0 134 8q197 20 336 72q133 49 190 114.5t72 157.5q11 66 11 379q0 154 -3 354q29 22 57 22l72 -34q14 -334 14 -520q0 -140 -8 -199q-18 -133 -106.5 -243.5 t-243.5 -155.5q-157 -46 -289 -61q-141 -16 -246 -17q-113 0 -235.5 37t-177.5 152q-38 77 -38 496q0 202 9 482zM441 1446q0 43 28 66q25 23 66 22q20 0 31 -2q55 -12 67 -82v-14q0 -55 -80 -74q-29 -4 -36 -4q-57 0 -70 54q-6 18 -6 34zM776.5 1428q-12.5 43 39.5 92 q10 10 22 16q8 4 27 5q33 0 67 -33q20 -20 29 -37q6 -14 6 -29q0 -23 -22 -45q-16 -16 -37 -26q-16 -8 -37 -9q-12 0 -29 4q-53 19 -65.5 62z" />
<glyph unicode="&#xdd;" horiz-adv-x="1363" />
<glyph unicode="&#xde;" horiz-adv-x="1363" />
<glyph unicode="&#xdf;" horiz-adv-x="1241" d="M59 -10l4 776q61 246 278.5 260t348.5 -49.5t144 -142.5q12 -76 -60 -156q-16 -18 -49 -39q195 12 360 -47q190 -68 89 -266q-102 -201 -445 -295q-215 -61 -393 -33q-53 90 72 90q109 -8 243 29q240 63 369 198q127 133 -19 187q-141 51 -370 18q-29 -4 -62 -10 l-102 -31q-94 -6 -94 51q0 55 53 58q217 68 256 160q41 92 -61.5 137t-249.5 33q-150 -12 -189 -152v-135l-4 -109l6 -506q-49 -71 -125 -26z" />
<glyph unicode="&#xe0;" horiz-adv-x="976" d="M37 96q-17 34 -17 66q0 90 136 168q180 102 647 106q4 23 4 44q0 92 -92 122q-96 31 -186 31q-26 0 -52 -2q-125 -12 -260 -99q-39 23 -39 54q0 23 23 51q127 94 362 94q238 0 295 -74q57 -72 70 -200v-459q-39 -25 -72 -25q-26 0 -49 15v168q-205 -170 -457 -181 q-17 -1 -33 0q-221 0 -280 121zM168 135q30 -65 169 -65q22 0 46 2q184 12 416 180l2 90q-440 -14 -555 -74q-86 -44 -86 -99q0 -16 8 -34zM293 1176q0 16 8 26q20 63 65 64q25 0 56 -19q119 -66 182 -276l-47 -58q-96 177 -264 263z" />
<glyph unicode="&#xe1;" horiz-adv-x="976" d="M35 96q-17 34 -17 66q0 90 136 168q180 102 647 106q4 23 4 44q0 92 -92 122q-96 31 -186 31q-26 0 -52 -2q-125 -12 -260 -99q-39 23 -39 54q0 23 23 51q127 94 362 94q238 0 295 -74q57 -72 70 -200v-459q-39 -25 -72 -25q-26 0 -49 15v168q-205 -170 -457 -181 q-17 -1 -33 0q-221 0 -280 121zM166 135q30 -65 169 -65q22 0 46 2q184 12 416 180l2 90q-440 -14 -555 -74q-86 -44 -86 -99q0 -16 8 -34zM471 971q133 154 182 276q31 18 53 19q47 0 68 -64q8 -10 8 -26q-104 -152 -266 -263z" />
<glyph unicode="&#xe2;" horiz-adv-x="976" d="M35 96q-17 34 -17 66q0 90 136 168q180 102 647 106q4 23 4 44q0 92 -92 122q-96 31 -186 31q-26 0 -52 -2q-125 -12 -260 -99q-39 23 -39 54q0 23 23 51q127 94 362 94q238 0 295 -74q57 -72 70 -200v-459q-39 -25 -72 -25q-26 0 -49 15v168q-205 -170 -457 -181 q-17 -1 -33 0q-221 0 -280 121zM166 135q30 -65 169 -65q22 0 46 2q184 12 416 180l2 90q-440 -14 -555 -74q-86 -44 -86 -99q0 -16 8 -34zM303 938l199 207q29 23 57 22q27 0 46 -16l157 -207q-8 -35 -53 -35q-23 0 -37 4l-117 170l-166 -164q-20 -4 -28 -4q-31 0 -58 23z " />
<glyph unicode="&#xe3;" horiz-adv-x="976" d="M35 96q-17 34 -17 66q0 90 136 168q180 102 647 106q4 23 4 44q0 92 -92 122q-96 31 -186 31q-26 0 -52 -2q-125 -12 -260 -99q-39 23 -39 54q0 23 23 51q127 94 362 94q238 0 295 -74q57 -72 70 -200v-459q-39 -25 -72 -25q-26 0 -49 15v168q-205 -170 -457 -181 q-17 -1 -33 0q-221 0 -280 121zM166 135q30 -65 169 -65q22 0 46 2q184 12 416 180l2 90q-440 -14 -555 -74q-86 -44 -86 -99q0 -16 8 -34zM207 934l123 176h10q29 0 68 -27l200 -108l101 123q23 12 84 -21l-127 -182q0 -4 -11 -4q-20 0 -81 18l-189 109l-96 -117 q-18 6 -40 15.5z" />
<glyph unicode="&#xe4;" horiz-adv-x="976" d="M35 96q-17 34 -17 66q0 90 136 168q180 102 647 106q4 23 4 44q0 92 -92 122q-96 31 -186 31q-26 0 -52 -2q-125 -12 -260 -99q-39 23 -39 54q0 23 23 51q127 94 362 94q238 0 295 -74q57 -72 70 -200v-459q-39 -25 -72 -25q-26 0 -49 15v168q-205 -170 -457 -181 q-17 -1 -33 0q-221 0 -280 121zM166 135q30 -65 169 -65q22 0 46 2q184 12 416 180l2 90q-440 -14 -555 -74q-86 -44 -86 -99q0 -16 8 -34zM260 1038q0 43 28 66q25 23 66 22q20 0 31 -2q55 -12 67 -82v-14q0 -55 -80 -74q-29 -4 -36 -4q-57 0 -70 54q-6 18 -6 34z M595.5 1020q-12.5 43 39.5 92q10 10 22 16q8 4 27 5q33 0 67 -33q20 -20 29 -37q6 -14 6 -29q0 -23 -22 -45q-16 -16 -37 -26q-16 -8 -37 -9q-12 0 -29 4q-53 19 -65.5 62z" />
<glyph unicode="&#xe5;" />
<glyph unicode="&#xe6;" horiz-adv-x="1820" />
<glyph unicode="&#xe7;" horiz-adv-x="1126" d="M33 227q-2 14 -2 28q0 109 106 220q121 127 357 195q127 37 279 37q130 0 276 -27q7 -19 7 -35q0 -39 -40 -61q-135 17 -246 16q-136 0 -242 -25q-195 -47 -307 -186q-58 -73 -58 -132q0 -57 52 -103q96 -85 248 -86q19 0 39 2q174 12 534 145q52 -20 52 -61 q0 -17 -9 -37q-440 -141 -606 -142q-160 0 -295 68q-131 65 -145 184zM391 -322q2 20 27 35q4 6 14 8q8 -8 13 -10q2 0 2 1t2 1q18 -16 41 -28q25 -10 39 -11q49 0 88 9q16 4 22 8q18 8 27 26q23 31 -4 54q-25 22 -62 30q-45 10 -69 23q-33 14 -39 53q-6 41 28 78h7l4 4t2 4 q16 0 24 -8q23 -6 31 -33q-39 -31 -6 -51q2 0 5 -2t5 -4q12 -6 53 -19q33 -8 45 -16q31 -14 47 -33q23 -27 23 -57v-6q-4 -37 -47 -72q-45 -35 -121 -39h-55q-52 0 -74 6q-33 12 -45 21q-19 12 -27 28z" />
<glyph unicode="&#xe8;" horiz-adv-x="1142" d="M55 152q-39 62 -39 123q0 70 50 139q90 125 229 198q135 72 285 99q67 12 137 12q91 0 186 -21q172 -37 191 -153q1 -8 1 -15q0 -106 -243 -217q-196 -89 -496 -88q-95 0 -200 9q23 -88 141 -127q87 -29 212 -29q48 0 103 4q195 14 426 141q75 -28 75 -90q0 -7 -1 -14 q-102 -47 -174 -74q-51 -18 -150 -47q-74 -20 -167 -25h-25q-95 0 -264 19q-193 21 -277 156zM158 336q107 -8 200 -8q265 0 418 65q183 78 184 138q0 8 -4 16q-27 63 -174 69q-13 1 -27 1q-141 0 -323 -58q-204 -65 -274 -223zM346 1176q0 16 8 26q20 63 65 64q25 0 56 -19 q119 -66 182 -276l-47 -58q-96 177 -264 263z" />
<glyph unicode="&#xe9;" horiz-adv-x="1142" d="M55 152q-39 62 -39 123q0 70 50 139q90 125 229 198q135 72 285 99q67 12 137 12q91 0 186 -21q172 -37 191 -153q1 -8 1 -15q0 -106 -243 -217q-196 -89 -496 -88q-95 0 -200 9q23 -88 141 -127q87 -29 212 -29q48 0 103 4q195 14 426 141q75 -28 75 -90q0 -7 -1 -14 q-102 -47 -174 -74q-51 -18 -150 -47q-74 -20 -167 -25h-25q-95 0 -264 19q-193 21 -277 156zM158 336q107 -8 200 -8q265 0 418 65q183 78 184 138q0 8 -4 16q-27 63 -174 69q-13 1 -27 1q-141 0 -323 -58q-204 -65 -274 -223zM543 971q133 154 182 276q31 18 53 19 q47 0 68 -64q8 -10 8 -26q-104 -152 -266 -263z" />
<glyph unicode="&#xea;" horiz-adv-x="1142" d="M55 152q-39 62 -39 123q0 70 50 139q90 125 229 198q135 72 285 99q67 12 137 12q91 0 186 -21q172 -37 191 -153q1 -8 1 -15q0 -106 -243 -217q-196 -89 -496 -88q-95 0 -200 9q23 -88 141 -127q87 -29 212 -29q48 0 103 4q195 14 426 141q75 -28 75 -90q0 -7 -1 -14 q-102 -47 -174 -74q-51 -18 -150 -47q-74 -20 -167 -25h-25q-95 0 -264 19q-193 21 -277 156zM158 336q107 -8 200 -8q265 0 418 65q183 78 184 138q0 8 -4 16q-27 63 -174 69q-13 1 -27 1q-141 0 -323 -58q-204 -65 -274 -223zM346 934l199 207q29 23 57 22q27 0 46 -16 l157 -207q-8 -35 -53 -35q-23 0 -37 4l-117 170l-166 -164q-20 -4 -28 -4q-31 0 -58 23z" />
<glyph unicode="&#xeb;" horiz-adv-x="1142" d="M55 152q-39 62 -39 123q0 70 50 139q90 125 229 198q135 72 285 99q67 12 137 12q91 0 186 -21q172 -37 191 -153q1 -8 1 -15q0 -106 -243 -217q-196 -89 -496 -88q-95 0 -200 9q23 -88 141 -127q87 -29 212 -29q48 0 103 4q195 14 426 141q75 -28 75 -90q0 -7 -1 -14 q-102 -47 -174 -74q-51 -18 -150 -47q-74 -20 -167 -25h-25q-95 0 -264 19q-193 21 -277 156zM158 336q107 -8 200 -8q265 0 418 65q183 78 184 138q0 8 -4 16q-27 63 -174 69q-13 1 -27 1q-141 0 -323 -58q-204 -65 -274 -223zM328 1038q0 43 28 66q25 23 66 22q20 0 31 -2 q55 -12 67 -82v-14q0 -55 -80 -74q-29 -4 -36 -4q-57 0 -70 54q-6 18 -6 34zM663.5 1020q-12.5 43 39.5 92q10 10 22 16q8 4 27 5q33 0 67 -33q20 -20 29 -37q6 -14 6 -29q0 -23 -22 -45q-16 -16 -37 -26q-16 -8 -37 -9q-12 0 -29 4q-53 19 -65.5 62z" />
<glyph unicode="&#xec;" horiz-adv-x="290" d="M223 702q-53 -356 2 -714q-63 -43 -112 -6q-47 362 -11 731q68 42 121 -11zM-86 1176q0 16 8 26q20 63 65 64q25 0 56 -19q119 -66 182 -276l-47 -58q-96 177 -264 263z" />
<glyph unicode="&#xed;" horiz-adv-x="290" d="M223 702q-53 -356 2 -714q-63 -43 -112 -6q-47 362 -11 731q68 42 121 -11zM109 971q133 154 182 276q31 18 53 19q47 0 68 -64q8 -10 8 -26q-104 -152 -266 -263z" />
<glyph unicode="&#xee;" horiz-adv-x="290" d="M231 702q-53 -356 2 -714q-63 -43 -112 -6q-47 362 -11 731q68 42 121 -11zM-12.2031 934l159.197 207q23.1992 23 45.5996 22q21.5996 0 36.7988 -16l125.599 -207q-6.40039 -35 -42.3994 -35q-18.3994 0 -29.5996 4l-93.5986 170l-132.798 -164q-16 -4 -22.3994 -4 q-24.7998 0 -46.3994 23z" />
<glyph unicode="&#xef;" horiz-adv-x="290" d="M223 702q-53 -356 2 -714q-63 -43 -112 -6q-47 362 -11 731q68 42 121 -11zM-80 1038q0 43 28 66q25 23 66 22q20 0 31 -2q55 -12 67 -82v-14q0 -55 -80 -74q-29 -4 -36 -4q-57 0 -70 54q-6 18 -6 34zM255.5 1020q-12.5 43 39.5 92q10 10 22 16q8 4 27 5q33 0 67 -33 q20 -20 29 -37q6 -14 6 -29q0 -23 -22 -45q-16 -16 -37 -26q-16 -8 -37 -9q-12 0 -29 4q-53 19 -65.5 62z" />
<glyph unicode="&#xf0;" />
<glyph unicode="&#xf1;" horiz-adv-x="946" d="M66 688q26 26 56 27q29 0 62 -25l-2 -100q88 100 232 123q58 9 116 8q76 0 152 -14q127 -25 188 -150q36 -73 36 -257q0 -135 -19 -327q-41 -26 -71 -26q-33 0 -52 33q21 222 21 352q0 83 -9 131q-20 123 -131 141q-40 7 -83 7q-72 0 -150 -19q-121 -29 -226 -143l2 -373 v-109q-34 -31 -64 -30.5t-54 30.5zM207 934l123 176h10q29 0 68 -27l200 -108l101 123q23 12 84 -21l-127 -182q0 -4 -11 -4q-20 0 -81 18l-189 109l-96 -117q-18 6 -40 15.5z" />
<glyph unicode="&#xf2;" horiz-adv-x="1218" d="M74 424q113 180 323 246q172 53 310 53q27 0 53 -2q145 -12 256 -64q102 -49 160 -186q18 -45 18 -88q0 -88 -78 -174q-113 -125 -276 -184q-160 -59 -367 -62h-9q-203 0 -351 139q-87 82 -87 176q0 69 48 146zM190 381q-22 -43 -22 -84q0 -72 70 -133q106 -94 266 -94 h10q168 2 324 59q150 53 204 188q16 41 17 77q0 79 -78 136q-115 84 -279 84q-168 0 -309.5 -57t-202.5 -176zM367 1176q0 16 8 26q20 63 65 64q25 0 56 -19q119 -66 182 -276l-47 -58q-96 177 -264 263z" />
<glyph unicode="&#xf3;" horiz-adv-x="1218" d="M74 424q113 180 323 246q172 53 310 53q27 0 53 -2q145 -12 256 -64q102 -49 160 -186q18 -45 18 -88q0 -88 -78 -174q-113 -125 -276 -184q-160 -59 -367 -62h-9q-203 0 -351 139q-87 82 -87 176q0 69 48 146zM190 381q-22 -43 -22 -84q0 -72 70 -133q106 -94 266 -94 h10q168 2 324 59q150 53 204 188q16 41 17 77q0 79 -78 136q-115 84 -279 84q-168 0 -309.5 -57t-202.5 -176zM594 971q133 154 182 276q31 18 53 19q47 0 68 -64q8 -10 8 -26q-104 -152 -266 -263z" />
<glyph unicode="&#xf4;" horiz-adv-x="1218" d="M74 424q113 180 323 246q172 53 310 53q27 0 53 -2q145 -12 256 -64q102 -49 160 -186q18 -45 18 -88q0 -88 -78 -174q-113 -125 -276 -184q-160 -59 -367 -62h-9q-203 0 -351 139q-87 82 -87 176q0 69 48 146zM190 381q-22 -43 -22 -84q0 -72 70 -133q106 -94 266 -94 h10q168 2 324 59q150 53 204 188q16 41 17 77q0 79 -78 136q-115 84 -279 84q-168 0 -309.5 -57t-202.5 -176zM415 934l199 207q29 23 57 22q27 0 46 -16l157 -207q-8 -35 -53 -35q-23 0 -37 4l-117 170l-166 -164q-20 -4 -28 -4q-31 0 -58 23z" />
<glyph unicode="&#xf5;" horiz-adv-x="1218" d="M74 424q113 180 323 246q172 53 310 53q27 0 53 -2q145 -12 256 -64q102 -49 160 -186q18 -45 18 -88q0 -88 -78 -174q-113 -125 -276 -184q-160 -59 -367 -62h-9q-203 0 -351 139q-87 82 -87 176q0 69 48 146zM190 381q-22 -43 -22 -84q0 -72 70 -133q106 -94 266 -94 h10q168 2 324 59q150 53 204 188q16 41 17 77q0 79 -78 136q-115 84 -279 84q-168 0 -309.5 -57t-202.5 -176zM338 934l123 176h10q29 0 68 -27l200 -108l101 123q23 12 84 -21l-127 -182q0 -4 -11 -4q-20 0 -81 18l-189 109l-96 -117q-18 6 -40 15.5z" />
<glyph unicode="&#xf6;" horiz-adv-x="1218" d="M74 424q113 180 323 246q172 53 310 53q27 0 53 -2q145 -12 256 -64q102 -49 160 -186q18 -45 18 -88q0 -88 -78 -174q-113 -125 -276 -184q-160 -59 -367 -62h-9q-203 0 -351 139q-87 82 -87 176q0 69 48 146zM190 381q-22 -43 -22 -84q0 -72 70 -133q106 -94 266 -94 h10q168 2 324 59q150 53 204 188q16 41 17 77q0 79 -78 136q-115 84 -279 84q-168 0 -309.5 -57t-202.5 -176zM367 1038q0 43 28 66q25 23 66 22q20 0 31 -2q55 -12 67 -82v-14q0 -55 -80 -74q-29 -4 -36 -4q-57 0 -70 54q-6 18 -6 34zM702.5 1020q-12.5 43 39.5 92 q10 10 22 16q8 4 27 5q33 0 67 -33q20 -20 29 -37q6 -14 6 -29q0 -23 -22 -45q-16 -16 -37 -26q-16 -8 -37 -9q-12 0 -29 4q-53 19 -65.5 62z" />
<glyph unicode="&#xf7;" horiz-adv-x="1122" />
<glyph unicode="&#xf8;" horiz-adv-x="1249" />
<glyph unicode="&#xf9;" horiz-adv-x="901" d="M47 717q44 27 74 27q32 0 51 -31q-22 -237 -22 -365q0 -77 8 -121q20 -123 131 -141q54 -9 116.5 -9t133.5 9q143 18 176 86q33 66 33 256q0 70 -1.5 169t-1.5 128q35 31 65 31t54 -31q5 -137 6 -244q0 -328 -51 -395q-68 -90 -254 -109q-80 -8 -149 -7q-92 0 -164 14 q-125 25 -186 149q-36 74 -37 263q0 133 18 321zM205 1176q0 16 8 26q20 63 65 64q25 0 56 -19q119 -66 182 -276l-47 -58q-96 177 -264 263z" />
<glyph unicode="&#xfa;" horiz-adv-x="901" d="M47 717q44 27 74 27q32 0 51 -31q-22 -237 -22 -365q0 -77 8 -121q20 -123 131 -141q54 -9 116.5 -9t133.5 9q143 18 176 86q33 66 33 256q0 70 -1.5 169t-1.5 128q35 31 65 31t54 -31q5 -137 6 -244q0 -328 -51 -395q-68 -90 -254 -109q-80 -8 -149 -7q-92 0 -164 14 q-125 25 -186 149q-36 74 -37 263q0 133 18 321zM406 971q133 154 182 276q31 18 53 19q47 0 68 -64q8 -10 8 -26q-104 -152 -266 -263z" />
<glyph unicode="&#xfb;" horiz-adv-x="901" d="M47 717q44 27 74 27q32 0 51 -31q-22 -237 -22 -365q0 -77 8 -121q20 -123 131 -141q54 -9 116.5 -9t133.5 9q143 18 176 86q33 66 33 256q0 70 -1.5 169t-1.5 128q35 31 65 31t54 -31q5 -137 6 -244q0 -328 -51 -395q-68 -90 -254 -109q-80 -8 -149 -7q-92 0 -164 14 q-125 25 -186 149q-36 74 -37 263q0 133 18 321zM243 934l199 207q29 23 57 22q27 0 46 -16l157 -207q-8 -35 -53 -35q-23 0 -37 4l-117 170l-166 -164q-20 -4 -28 -4q-31 0 -58 23z" />
<glyph unicode="&#xfc;" horiz-adv-x="901" d="M47 717q44 27 74 27q32 0 51 -31q-22 -237 -22 -365q0 -77 8 -121q20 -123 131 -141q54 -9 116.5 -9t133.5 9q143 18 176 86q33 66 33 256q0 70 -1.5 169t-1.5 128q35 31 65 31t54 -31q5 -137 6 -244q0 -328 -51 -395q-68 -90 -254 -109q-80 -8 -149 -7q-92 0 -164 14 q-125 25 -186 149q-36 74 -37 263q0 133 18 321zM191 1038q0 43 28 66q25 23 66 22q20 0 31 -2q55 -12 67 -82v-14q0 -55 -80 -74q-29 -4 -36 -4q-57 0 -70 54q-6 18 -6 34zM526.5 1020q-12.5 43 39.5 92q10 10 22 16q8 4 27 5q33 0 67 -33q20 -20 29 -37q6 -14 6 -29 q0 -23 -22 -45q-16 -16 -37 -26q-16 -8 -37 -9q-12 0 -29 4q-53 19 -65.5 62z" />
<glyph unicode="&#xfd;" horiz-adv-x="1024" />
<glyph unicode="&#xfe;" />
<glyph unicode="&#xff;" horiz-adv-x="1024" d="M-18 -303q-29 31 -29 55q0 35 61 53q340 -94 498 -94q150 0 285 82q89 54 88 239q0 90 -21 210q-178 -215 -387 -246q-75 -11 -136 -11q-112 0 -181 35q-109 55 -127 209q-3 23 -3 50q0 153 89 440q42 15 73 15q37 0 60 -21q-93 -289 -93 -436q0 -114 56 -142 q86 -43 177 -43q44 0 87 10q131 31 375 275l-41 313q34 36 70 37q21 0 43 -12q73 -405 73 -650q0 -292 -104 -356q-181 -111 -378 -110h-11q-202 4 -524 98zM254 1046q0 43 28 66q25 23 66 22q20 0 31 -2q55 -12 67 -82v-14q0 -55 -80 -74q-29 -4 -36 -4q-57 0 -70 54 q-6 18 -6 34zM589.5 1028q-12.5 43 39.5 92q10 10 22 16q8 4 27 5q33 0 67 -33q20 -20 29 -37q6 -14 6 -29q0 -23 -22 -45q-16 -16 -37 -26q-16 -8 -37 -9q-12 0 -29 4q-53 19 -65.5 62z" />
<glyph unicode="&#x131;" horiz-adv-x="290" d="M223 702q-53 -356 2 -714q-63 -43 -112 -6q-47 362 -11 731q68 42 121 -11z" />
<glyph unicode="&#x152;" horiz-adv-x="2048" />
<glyph unicode="&#x153;" horiz-adv-x="1931" />
<glyph unicode="&#x178;" horiz-adv-x="1212" d="M-104 1057l-2 14q0 68 101 68h15l527 -437l702 465q97 -5 97 -62q0 -14 -5 -30l-710 -491l8 -586q-39 -38 -81 -38q-40 0 -77 36l2 577zM309 1441q0 43 28 66q25 23 66 22q20 0 31 -2q55 -12 67 -82v-14q0 -55 -80 -74q-29 -4 -36 -4q-57 0 -70 54q-6 18 -6 34z M644.5 1423q-12.5 43 39.5 92q10 10 22 16q8 4 27 5q33 0 67 -33q20 -20 29 -37q6 -14 6 -29q0 -23 -22 -45q-16 -16 -37 -26q-16 -8 -37 -9q-12 0 -29 4q-53 19 -65.5 62z" />
<glyph unicode="&#x2c6;" horiz-adv-x="1048" d="M276 934l199 207q29 23 57 22q27 0 46 -16l157 -207q-8 -35 -53 -35q-23 0 -37 4l-117 170l-166 -164q-20 -4 -28 -4q-31 0 -58 23z" />
<glyph unicode="&#x2dc;" horiz-adv-x="997" d="M211 934l123 176h10q29 0 68 -27l200 -108l101 123q23 12 84 -21l-127 -182q0 -4 -11 -4q-20 0 -81 18l-189 109l-96 -117q-18 6 -40 15.5z" />
<glyph unicode="&#x2000;" horiz-adv-x="829" />
<glyph unicode="&#x2001;" horiz-adv-x="1660" />
<glyph unicode="&#x2002;" horiz-adv-x="829" />
<glyph unicode="&#x2003;" horiz-adv-x="1660" />
<glyph unicode="&#x2004;" horiz-adv-x="552" />
<glyph unicode="&#x2005;" horiz-adv-x="413" />
<glyph unicode="&#x2006;" horiz-adv-x="274" />
<glyph unicode="&#x2007;" horiz-adv-x="274" />
<glyph unicode="&#x2008;" horiz-adv-x="206" />
<glyph unicode="&#x2009;" horiz-adv-x="331" />
<glyph unicode="&#x200a;" horiz-adv-x="90" />
<glyph unicode="&#x2010;" horiz-adv-x="792" d="M76 532q-43 74 16 138l608 26q59 -66 -10 -137z" />
<glyph unicode="&#x2011;" horiz-adv-x="792" d="M76 532q-43 74 16 138l608 26q59 -66 -10 -137z" />
<glyph unicode="&#x2012;" horiz-adv-x="792" d="M76 532q-43 74 16 138l608 26q59 -66 -10 -137z" />
<glyph unicode="&#x2013;" />
<glyph unicode="&#x2014;" horiz-adv-x="2048" />
<glyph unicode="&#x2018;" horiz-adv-x="389" d="M90 774q22 181 31 338q53 102 178 43q-23 -215 -100 -426z" />
<glyph unicode="&#x2019;" horiz-adv-x="389" d="M90 774q22 181 31 338q53 102 178 43q-23 -215 -100 -426z" />
<glyph unicode="&#x201a;" horiz-adv-x="454" />
<glyph unicode="&#x201c;" horiz-adv-x="796" d="M199 1112q39 102 172 43q0 -231 -47 -426l-115 45q-4 229 -10 338zM414 1112q39 102 172 43q2 -219 -47 -426l-113 45q0 129 -12 338z" />
<glyph unicode="&#x201d;" horiz-adv-x="796" d="M199 1112q39 102 172 43q0 -231 -47 -426l-115 45q-4 229 -10 338zM414 1112q39 102 172 43q2 -219 -47 -426l-113 45q0 129 -12 338z" />
<glyph unicode="&#x201e;" horiz-adv-x="681" />
<glyph unicode="&#x2022;" horiz-adv-x="716" />
<glyph unicode="&#x2026;" horiz-adv-x="2048" />
<glyph unicode="&#x202f;" horiz-adv-x="331" />
<glyph unicode="&#x2039;" horiz-adv-x="681" />
<glyph unicode="&#x203a;" horiz-adv-x="681" />
<glyph unicode="&#x205f;" horiz-adv-x="413" />
<glyph unicode="&#x20ac;" horiz-adv-x="1599" d="M51 578q0 35 35 65l113 6l6 13q96 201 268 294q180 98 332 125q96 18 192 19q55 0 115 -6q152 -18 434 -123q14 -23 15 -45q0 -47 -82 -78q-129 63 -207 86q-72 20 -185 45q-100 20 -213 0q-119 -23 -237 -72q-127 -53 -203 -125q-55 -51 -92 -127l815 37 q57 -53 -10 -114l-848 -39q-14 -51 -6 -107l864 39q57 -55 -10 -117l-809 -35q20 -35 55 -69q70 -70 154 -98q88 -31 225 -56q133 -25 289 4q152 27 399 176q102 -16 103 -73q-16 -37 -142 -113q-129 -78 -321 -108q-86 -14 -189 -15q-109 0 -223 19q-217 37 -328 100 q-113 63 -182 221l-1 2l-1 2l-106 -4q-16 23 -17 49q0 37 33 68l66 2q-4 55 8 106l-90 -4q-19 25 -19 50z" />
<glyph unicode="&#x2122;" horiz-adv-x="2048" />
<glyph unicode="&#xe000;" horiz-adv-x="740" d="M0 740h740v-740h-740v740z" />
<glyph unicode="&#xf001;" horiz-adv-x="1024" />
<glyph unicode="&#xfb01;" horiz-adv-x="1024" />
<glyph unicode="&#xf002;" horiz-adv-x="1024" />
<glyph unicode="&#xfb02;" horiz-adv-x="1024" />
<glyph unicode="&#xfb03;" horiz-adv-x="1601" d="M1415 713q30 19 58 19q34 0 63 -30q-26 -175 -26 -350q0 -182 28 -364q-35 -23 -64 -23q-26 0 -48 17q-26 203 -27 409q0 161 16 322zM651 485q-15 27 -15 53q0 27 17 54l123 16q-3 50 -3 93q0 184 54 243q70 76 195 100q45 9 92 9q90 0 188 -31q15 -25 15 -44 q0 -34 -48 -50q-99 16 -169 16q-94 0 -142 -29q-63 -37 -63 -195q0 -48 6 -108l422 23q27 -35 27 -64q0 -25 -21 -45l-422 -18l6 -551q-33 -25 -65 -25q-28 0 -56 19l-8 538zM-4 485q-15 27 -15 53q0 27 17 54l123 16q-3 50 -3 93q0 184 54 243q70 76 195 100q45 9 92 9 q90 0 188 -31q15 -25 15 -44q0 -34 -48 -50q-99 16 -169 16q-94 0 -142 -29q-63 -37 -63 -195q0 -48 6 -108l422 23q27 -35 27 -64q0 -25 -21 -45l-422 -18l6 -551q-33 -25 -65 -25q-28 0 -56 19l-8 538z" />
<glyph unicode="&#xfb04;" horiz-adv-x="1601" d="M1415 993q31 28 59 28q34 0 62 -40q-26 -242 -26 -483q0 -251 28 -502q-34 -31 -63 -31q-26 0 -49 25q-26 280 -27 561q0 220 16 442zM651 485q-15 27 -15 53q0 27 17 54l123 16q-3 50 -3 93q0 184 54 243q70 76 195 100q45 9 92 9q90 0 188 -31q15 -25 15 -44 q0 -34 -48 -50q-99 16 -169 16q-94 0 -142 -29q-63 -37 -63 -195q0 -48 6 -108l422 23q27 -35 27 -64q0 -25 -21 -45l-422 -18l6 -551q-33 -25 -65 -25q-28 0 -56 19l-8 538zM-4 485q-15 27 -15 53q0 27 17 54l123 16q-3 50 -3 93q0 184 54 243q70 76 195 100q45 9 92 9 q90 0 188 -31q15 -25 15 -44q0 -34 -48 -50q-99 16 -169 16q-94 0 -142 -29q-63 -37 -63 -195q0 -48 6 -108l422 23q27 -35 27 -64q0 -25 -21 -45l-422 -18l6 -551q-33 -25 -65 -25q-28 0 -56 19l-8 538z" />
</font>
</defs>
</svg>
